<svg width="153" height="26" viewBox="0 0 153 26" fill="none" xmlns="http://www.w3.org/2000/svg">
<g id="Layer_1" clip-path="url(#clip0_1349_1269)">
<path id="Vector" d="M34.3449 25.2761L22.5833 12.999L34.3449 0.723877V25.2761ZM25.5213 12.999L32.2215 19.9927V6.00727L25.5213 13.001V12.999Z" fill="#5D8FC4"/>
<path id="Vector_2" d="M14.5163 12.9932L14.5047 12.9817L27.4845 0H12.9913L0.0250947 0.0250947V12.9894L0 26H27.4845L14.497 13.0125L14.5163 12.9932ZM2.14656 2.1427L12.9913 2.12146H22.3593L11.5262 12.9546L11.5185 12.9469L2.12726 23.5407L2.14656 12.9894V2.1427Z" fill="#5D8FC4"/>
<path id="Vector_3" d="M47.4559 0.372559V14.053H48.2744C48.5698 14.053 48.8053 14.0144 48.9771 13.9372C49.1489 13.86 49.3245 13.7036 49.5021 13.4662L54.0365 7.86621C54.2257 7.61719 54.4361 7.42802 54.6678 7.29675C54.8994 7.16549 55.1986 7.10179 55.5654 7.10179H59.5844L53.913 13.8754C53.5095 14.4082 53.0713 14.8174 52.5965 15.1031C52.8455 15.2807 53.0675 15.4892 53.2625 15.7247C53.4574 15.9621 53.6447 16.2169 53.8223 16.4891L59.9029 25.3437H55.9379C55.5943 25.3437 55.2971 25.2877 55.048 25.1757C54.799 25.0638 54.5925 24.8592 54.4265 24.5619L49.7685 17.6454C49.6025 17.3732 49.4307 17.1956 49.2531 17.1126C49.0755 17.0296 48.8091 16.9891 48.4539 16.9891H47.4579V25.3456H43.0663V0.372559H47.4579H47.4559Z" fill="#5D8FC4"/>
<path id="Vector_4" d="M63.4219 9.64407C65.5202 7.72337 68.0451 6.76398 70.9966 6.76398C72.0641 6.76398 73.0177 6.93964 73.8594 7.28903C74.701 7.63843 75.4114 8.12488 75.9924 8.74646C76.5735 9.36803 77.0155 10.1131 77.3166 10.9779C77.6197 11.8428 77.7703 12.7906 77.7703 13.8233V25.3437H75.7781C75.3631 25.3437 75.0427 25.2819 74.8188 25.1564C74.5929 25.0329 74.4153 24.78 74.286 24.4017L73.8941 23.0852C73.4328 23.5002 72.9811 23.865 72.5429 24.1777C72.1047 24.4924 71.6472 24.7549 71.1742 24.9692C70.6994 25.1835 70.1936 25.3456 69.655 25.4576C69.1165 25.5695 68.52 25.6255 67.8675 25.6255C67.0973 25.6255 66.385 25.5213 65.7345 25.3147C65.082 25.1082 64.5203 24.7955 64.0454 24.3804C63.5706 23.9654 63.2038 23.45 62.9432 22.8342C62.6826 22.2184 62.5513 21.5003 62.5513 20.6838C62.5513 20.2224 62.6285 19.763 62.783 19.3055C62.9374 18.85 63.1883 18.4137 63.5377 17.9987C63.8871 17.5836 64.3408 17.1918 64.8986 16.825C65.4565 16.4582 66.1399 16.1378 66.9525 15.8656C67.7633 15.5934 68.7092 15.3714 69.7882 15.1996C70.8673 15.0278 72.0989 14.9236 73.4868 14.8889V13.8214C73.4868 12.6014 73.2262 11.696 72.705 11.1092C72.1838 10.5224 71.431 10.229 70.4465 10.229C69.7361 10.229 69.1454 10.312 68.6783 10.478C68.2092 10.644 67.798 10.8312 67.4429 11.0378C67.0877 11.2463 66.7634 11.4316 66.4738 11.5976C66.1823 11.7636 65.86 11.8466 65.5048 11.8466C65.1959 11.8466 64.9353 11.7675 64.723 11.6072C64.5087 11.447 64.3369 11.2598 64.2076 11.0474L63.4258 9.64214L63.4219 9.64407ZM73.4849 17.5566C72.2166 17.6165 71.1491 17.7265 70.2843 17.8848C69.4195 18.045 68.7265 18.2496 68.2034 18.4986C67.6822 18.7476 67.3077 19.0372 67.0838 19.3692C66.858 19.7012 66.746 20.0622 66.746 20.4541C66.746 21.2243 66.9738 21.7764 67.4313 22.1084C67.8868 22.4404 68.4833 22.6064 69.2188 22.6064C70.1203 22.6064 70.8982 22.4443 71.5565 22.1181C72.2147 21.7918 72.8575 21.2976 73.4849 20.6336V17.5585V17.5566Z" fill="#5D8FC4"/>
<path id="Vector_5" d="M86.2484 9.34101C86.6152 8.97424 87.0032 8.63257 87.4124 8.31792C87.8217 8.00327 88.2541 7.73688 88.7096 7.51875C89.1652 7.30062 89.6555 7.12689 90.1767 7.00335C90.6979 6.8798 91.2674 6.8161 91.8831 6.8161C92.8792 6.8161 93.7614 6.98404 94.5316 7.32185C95.3018 7.65967 95.9446 8.13454 96.46 8.74453C96.9754 9.35452 97.3673 10.0842 97.6337 10.9316C97.9001 11.7791 98.0333 12.7133 98.0333 13.7326V25.3418H93.6417V13.7326C93.6417 12.6188 93.3869 11.7559 92.8773 11.1459C92.3677 10.5359 91.5917 10.2309 90.5473 10.2309C89.7887 10.2309 89.0783 10.4027 88.4143 10.7463C87.7503 11.0899 87.1229 11.559 86.5303 12.1516V25.3437H82.1387V7.10179H84.8238C85.3933 7.10179 85.7658 7.36818 85.9434 7.90096L86.2465 9.34101H86.2484Z" fill="#5D8FC4"/>
<path id="Vector_6" d="M118.819 7.10181L111.582 25.3437H107.6L100.363 7.10181H103.99C104.322 7.10181 104.598 7.17902 104.817 7.33345C105.035 7.48788 105.181 7.68284 105.253 7.92028L108.774 17.6628C108.963 18.2323 109.129 18.7882 109.272 19.3345C109.415 19.8808 109.538 20.4251 109.644 20.9695C109.762 20.4251 109.893 19.8788 110.036 19.3345C110.179 18.7901 110.351 18.2323 110.552 17.6628L114.142 7.92028C114.225 7.68284 114.374 7.48788 114.586 7.33345C114.798 7.17902 115.053 7.10181 115.351 7.10181H118.817H118.819Z" fill="#5D8FC4"/>
<path id="Vector_7" d="M121.221 9.64407C123.319 7.72337 125.844 6.76398 128.795 6.76398C129.863 6.76398 130.817 6.93964 131.658 7.28903C132.5 7.63843 133.21 8.12488 133.791 8.74646C134.372 9.36803 134.814 10.1131 135.115 10.9779C135.419 11.8428 135.569 12.7906 135.569 13.8233V25.3437H133.577C133.162 25.3437 132.842 25.2819 132.618 25.1564C132.392 25.0329 132.214 24.78 132.085 24.4017L131.693 23.0852C131.232 23.5002 130.78 23.865 130.342 24.1777C129.903 24.4924 129.446 24.7549 128.973 24.9692C128.498 25.1835 127.992 25.3456 127.454 25.4576C126.913 25.5695 126.319 25.6255 125.666 25.6255C124.896 25.6255 124.184 25.5213 123.533 25.3147C122.881 25.1082 122.319 24.7955 121.844 24.3804C121.369 23.9654 121.003 23.45 120.742 22.8342C120.481 22.2184 120.35 21.5003 120.35 20.6838C120.35 20.2224 120.427 19.763 120.582 19.3055C120.736 18.85 120.987 18.4137 121.337 17.9987C121.686 17.5836 122.14 17.1918 122.697 16.825C123.255 16.4582 123.939 16.1378 124.751 15.8656C125.562 15.5934 126.508 15.3714 127.587 15.1996C128.666 15.0278 129.898 14.9236 131.286 14.8889V13.8214C131.286 12.6014 131.025 11.696 130.504 11.1092C129.983 10.5224 129.23 10.229 128.245 10.229C127.535 10.229 126.944 10.312 126.477 10.478C126.008 10.644 125.597 10.8312 125.242 11.0378C124.886 11.2463 124.562 11.4316 124.273 11.5976C123.981 11.7636 123.659 11.8466 123.304 11.8466C122.995 11.8466 122.734 11.7675 122.522 11.6072C122.308 11.447 122.136 11.2598 122.006 11.0474L121.225 9.64214L121.221 9.64407ZM131.284 17.5566C130.015 17.6165 128.948 17.7265 128.083 17.8848C127.218 18.045 126.523 18.2496 126.002 18.4986C125.481 18.7476 125.107 19.0372 124.883 19.3692C124.657 19.7012 124.545 20.0622 124.545 20.4541C124.545 21.2243 124.773 21.7764 125.23 22.1084C125.686 22.4404 126.282 22.6064 127.018 22.6064C127.919 22.6064 128.697 22.4443 129.355 22.1181C130.014 21.7918 130.656 21.2976 131.284 20.6336V17.5585V17.5566Z" fill="#5D8FC4"/>
<path id="Vector_8" d="M150.823 10.6575C150.703 10.8467 150.58 10.9799 150.45 11.0571C150.319 11.1343 150.153 11.1729 149.952 11.1729C149.738 11.1729 149.51 11.113 149.267 10.9953C149.024 10.8775 148.742 10.7444 148.423 10.5957C148.103 10.4471 147.738 10.3139 147.331 10.1961C146.922 10.0784 146.439 10.0185 145.881 10.0185C145.016 10.0185 144.337 10.2019 143.845 10.5687C143.352 10.9355 143.107 11.4161 143.107 12.0087C143.107 12.4006 143.235 12.7288 143.489 12.9951C143.744 13.2615 144.082 13.4951 144.503 13.6978C144.924 13.9005 145.4 14.08 145.933 14.2402C146.466 14.4004 147.008 14.5761 147.56 14.7653C148.111 14.9545 148.653 15.1707 149.188 15.4139C149.721 15.6571 150.197 15.964 150.618 16.3385C151.039 16.7111 151.377 17.1589 151.632 17.6801C151.886 18.2013 152.014 18.8306 152.014 19.5642C152.014 20.4405 151.857 21.2513 151.543 21.9906C151.228 22.7319 150.763 23.3708 150.147 23.9113C149.531 24.4499 148.769 24.8707 147.864 25.1738C146.956 25.4749 145.91 25.6274 144.725 25.6274C144.095 25.6274 143.484 25.5714 142.885 25.4595C142.287 25.3475 141.711 25.1892 141.161 24.9885C140.611 24.7877 140.1 24.5503 139.632 24.2781C139.163 24.0059 138.752 23.7086 138.397 23.3882L139.411 21.7165C139.54 21.5158 139.694 21.3613 139.872 21.2552C140.049 21.149 140.275 21.0949 140.547 21.0949C140.82 21.0949 141.078 21.1721 141.322 21.3266C141.565 21.481 141.847 21.647 142.165 21.8246C142.486 22.0022 142.862 22.1682 143.294 22.3226C143.727 22.4771 144.275 22.5543 144.939 22.5543C145.46 22.5543 145.908 22.4925 146.281 22.367C146.653 22.2416 146.962 22.0794 147.205 21.8787C147.449 21.6779 147.626 21.4424 147.738 21.176C147.85 20.9096 147.906 20.6336 147.906 20.3498C147.906 19.9232 147.779 19.5738 147.524 19.3016C147.269 19.0294 146.931 18.792 146.51 18.5913C146.09 18.3905 145.609 18.209 145.07 18.0488C144.53 17.8886 143.98 17.7149 143.416 17.5238C142.852 17.3346 142.302 17.1126 141.762 16.8578C141.221 16.603 140.742 16.2806 140.322 15.8888C139.901 15.4969 139.563 15.0182 139.308 14.4487C139.053 13.8793 138.926 13.192 138.926 12.3871C138.926 11.64 139.075 10.9297 139.37 10.254C139.665 9.57841 140.102 8.98965 140.677 8.48583C141.252 7.98201 141.968 7.57856 142.827 7.27743C143.686 6.97436 144.678 6.82379 145.806 6.82379C147.062 6.82379 148.205 7.03227 149.238 7.44537C150.269 7.86039 151.128 8.40476 151.815 9.08038L150.819 10.6633L150.823 10.6575Z" fill="#5D8FC4"/>
</g>
<defs>
<clipPath id="clip0_1349_1269">
<rect width="152.014" height="26" fill="white"/>
</clipPath>
</defs>
</svg>
